<svg id="Layer_1" data-name="Layer 1" xmlns="http://www.w3.org/2000/svg" xmlns:xlink="http://www.w3.org/1999/xlink" viewBox="0 0 3000 1800"><defs><style>.cls-1{fill:#dcecfd;}.cls-2{fill:#f4d2c6;}.cls-3{fill:#324d90;}.cls-4{fill:#4292f3;}.cls-5{fill:#fff;}.cls-6{clip-path:url(#clip-path);}.cls-7{fill:#f1f8fe;opacity:0.7;}.cls-8{fill:#152e60;}.cls-9{fill:#f08f3c;}.cls-10{fill:#fdf1e6;}.cls-11{fill:#f3ac4a;}.cls-12{clip-path:url(#clip-path-2);}.cls-13{fill:#eda19d;}.cls-14{fill:#f3f5fb;}.cls-15{fill:#e3eaf4;}.cls-16{clip-path:url(#clip-path-3);}.cls-17{fill:#3c7ed7;}.cls-18{clip-path:url(#clip-path-4);}.cls-19{fill:#2a437d;}.cls-20{clip-path:url(#clip-path-5);}.cls-21{clip-path:url(#clip-path-6);}.cls-22{fill:#59445a;}.cls-23{fill:#34254b;}.cls-24{clip-path:url(#clip-path-7);}.cls-25{fill:#deeefc;}.cls-26{fill:#d4e8fc;}</style><clipPath id="clip-path"><path class="cls-1" d="M507.07,1548.37H2692.58l-78-637.49c-85.05-579.55-715.06-772-1164.79-434.53C1267.18,582.56,1053.57,616.15,845,593.65c-406-38.95-689.73,458.41-450.61,788.27C394.37,1381.91,507.07,1548.37,507.07,1548.37Z"/></clipPath><clipPath id="clip-path-2"><path class="cls-2" d="M1465.88,648.12,1334.82,754.48l-42.35-46.37-55,50.23c6.47,7.15,45,49.1,50.28,55.27,21.3,24.94,62.87,25,84.29.2l119.33-132.46Z"/></clipPath><clipPath id="clip-path-3"><path class="cls-2" d="M960.9,780.53l46.21-30.94L974.82,692.7c-27.34,16.11-72.3,32.81-71.67,71.23,2.47,15.7-18.2,190.14-1.26,197.65h0c20,22.71,41.88,4.13,60.17-9.33L936.5,952Z"/></clipPath><clipPath id="clip-path-4"><polygon class="cls-3" points="1031.65 858.08 1043.8 1494.74 1086.61 1494.74 1176.34 856.64 1031.65 858.08"/></clipPath><clipPath id="clip-path-5"><polygon class="cls-3" points="1273.48 858.08 1261.34 1494.74 1216.49 1494.74 1128.79 856.64 1273.48 858.08"/></clipPath><clipPath id="clip-path-6"><path class="cls-2" d="M1200.47,508.59c-1.21,78-96.22,77.95-97.42,0C1094.41,428.78,1206.53,428,1200.47,508.59Z"/></clipPath><clipPath id="clip-path-7"><path class="cls-4" d="M1252.63,685.46c-9.61-64-58.5-96.09-113.27-89-43.74-1.61-83.15,42.87-88.59,89.06l-35.7,235.81h273.26Z"/></clipPath></defs><rect class="cls-5" width="3000" height="1800"/><path class="cls-1" d="M507.07,1548.37H2692.58l-78-637.49c-85.05-579.55-715.06-772-1164.79-434.53C1267.18,582.56,1053.57,616.15,845,593.65c-406-38.95-689.73,458.41-450.61,788.27C394.37,1381.91,507.07,1548.37,507.07,1548.37Z"/><g class="cls-6"><polygon class="cls-7" points="307.42 1570.14 307.42 1097.08 646.67 1097.08 646.67 856.64 1250.23 856.64 1250.23 1154.74 1934.7 1154.74 1934.7 909.55 2411.54 909.55 2411.54 1060.88 2773.53 1060.88 2773.53 1577.71 307.42 1570.14"/></g><path class="cls-3" d="M2049.21,681.05H1898.58a19.85,19.85,0,0,0-19.27,15.06l-185.62,743.36,13.66,0,184.1-737.28a9.35,9.35,0,0,1,9.08-7.08h148.68a7,7,0,0,0,7-7h0A7,7,0,0,0,2049.21,681.05Z"/><path class="cls-3" d="M2585.91,681.67H2435a19.85,19.85,0,0,0-19.27,15.05l-185.62,743.36,13.67,0,184.1-737.27a9.35,9.35,0,0,1,9.07-7.09h148.93a7,7,0,0,0,7-7h0A7,7,0,0,0,2585.91,681.67Z"/><path class="cls-8" d="M1881.32,1475.2c-.3-28.71-11.25-61.57-40.08-71.69-13.24-3-27.24-.9-40.74-1.4-35.74-5.23-61.27,26.39-62,73.09.72,46.7,26.23,78.3,62,73.08,13.5-.5,27.5,1.62,40.74-1.4,28.63-9.74,40-43.58,40.08-71.68Z"/><path class="cls-8" d="M1626.57,1443.47c-6.5-20.07-22.34-41.34-45.25-41.45h0c-14.32.07-29.18,0-43.23,0-27.62.65-49.82,33.82-49.36,74.38.47,40,22.82,72.17,50.53,72q21-.09,42.06,0h0c35-1.59,50.39-42.59,50.2-73.17h0A101.51,101.51,0,0,0,1626.57,1443.47Z"/><rect class="cls-9" x="1972.87" y="1005.04" width="361.06" height="445.17"/><rect class="cls-10" x="2164.82" y="1005.04" width="42.77" height="50.76"/><rect class="cls-11" x="1488.72" y="1005.04" width="544" height="445.17"/><rect class="cls-10" x="1728.5" y="1005.04" width="64.45" height="50.76"/><rect class="cls-3" x="1436.89" y="1446.3" width="948.86" height="25.39"/><rect class="cls-8" x="1436.89" y="1446.3" width="474.43" height="25.39"/><path class="cls-8" d="M2303.72,1402q-16.48.09-33,0c-74.62-10.59-78.93,144-9.42,146.35q16.49-.09,33,0C2368.91,1559,2373.23,1404.42,2303.72,1402Z"/><path class="cls-3" d="M2353.92,1475.2c-1.3,96.3-99.11,96.29-100.4,0C2254.82,1378.89,2352.63,1378.9,2353.92,1475.2Z"/><path class="cls-8" d="M2321.72,1475.2c-.47,37.1-35.54,37.1-36,0C2286.19,1438.09,2321.26,1438.09,2321.72,1475.2Z"/><path class="cls-8" d="M2053.92,1402q-16.5.09-33,0c-74.61-10.59-78.93,144-9.42,146.35q16.49-.09,33,0C2119.11,1559,2123.42,1404.42,2053.92,1402Z"/><path class="cls-3" d="M2104.12,1475.2c-1.31,96.3-99.11,96.29-100.41,0C2005,1378.89,2102.82,1378.9,2104.12,1475.2Z"/><path class="cls-8" d="M2071.92,1475.2c-.47,37.1-35.54,37.1-36,0C2036.38,1438.09,2071.45,1438.09,2071.92,1475.2Z"/><path class="cls-2" d="M1465.88,648.12,1334.82,754.48l-42.35-46.37-55,50.23c6.47,7.15,45,49.1,50.28,55.27,21.3,24.94,62.87,25,84.29.2l119.33-132.46Z"/><g class="cls-12"><polyline class="cls-13" points="1334.82 754.48 1298.91 832.53 1259.26 797.57 1321.98 736.8 1334.82 754.48"/></g><rect class="cls-3" x="1405.01" y="670.52" width="145.02" height="202.8" rx="11.84"/><rect class="cls-14" x="1419.2" y="686.11" width="116.64" height="171.72"/><rect class="cls-8" x="1452.63" y="666.05" width="49.77" height="24.86" rx="4.74"/><rect class="cls-15" x="1429.09" y="714.76" width="96.87" height="11.68"/><rect class="cls-15" x="1429.09" y="740.42" width="96.87" height="11.68"/><rect class="cls-15" x="1429.09" y="766.07" width="96.87" height="11.68"/><rect class="cls-15" x="1429.09" y="791.73" width="96.87" height="11.68"/><rect class="cls-15" x="1429.09" y="817.39" width="67.92" height="11.68"/><path class="cls-2" d="M1458.55,661.25c-1.83,15.36,10.73,23.32,22.7,29.34,17.44,10.7,41.64-6.83,36.4-26.79-1.88-14.11-10.91-21-24.11-24.24C1478.74,634.78,1459.78,645.05,1458.55,661.25Z"/><rect class="cls-4" x="980.3" y="634.44" width="160.74" height="97.81" transform="translate(2317.39 795.77) rotate(152.32)"/><path class="cls-2" d="M960.9,780.53l46.21-30.94L974.82,692.7c-27.34,16.11-72.3,32.81-71.67,71.23,2.47,15.7-18.2,190.14-1.26,197.65h0c20,22.71,41.88,4.13,60.17-9.33L936.5,952Z"/><g class="cls-16"><polygon class="cls-13" points="954.47 693.78 971.19 760.7 1009.52 735.74 983.27 678.48 954.47 693.78"/></g><rect class="cls-4" x="1165.56" y="666.17" width="160.74" height="97.81" transform="translate(870.56 -671.57) rotate(45)"/><polygon class="cls-17" points="1270.58 804.09 1251.5 699.6 1283.75 790.92 1270.58 804.09"/><polygon class="cls-3" points="1031.65 858.08 1043.8 1494.74 1086.61 1494.74 1176.34 856.64 1031.65 858.08"/><g class="cls-18"><path class="cls-19" d="M1152.3,1027.65c-62.21,82.64-81,356.79-85.86,475.74H1104l46.45-291.69,1.85-184"/></g><polygon class="cls-3" points="1273.48 858.08 1261.34 1494.74 1216.49 1494.74 1128.79 856.64 1273.48 858.08"/><g class="cls-20"><path class="cls-19" d="M1152.3,1027.65c52.89,67.2,82.06,375.57,83.35,472h-34.51l-48.84-472"/></g><path class="cls-13" d="M1110.78,506.13c3.29,19.78-13.74,22.67-17.16,2.91S1107.35,486.37,1110.78,506.13Z"/><path class="cls-13" d="M1192.74,506.13c-3.29,19.78,13.73,22.67,17.16,2.91S1196.16,486.37,1192.74,506.13Z"/><path class="cls-2" d="M1200.47,508.59c-1.21,78-96.22,77.95-97.42,0C1094.41,428.78,1206.53,428,1200.47,508.59Z"/><g class="cls-21"><path class="cls-13" d="M1107.26,480.52s36.82,7.61,86.19-6.09h0l-5.34-17.65-71.85,2.55-9,18.18"/></g><path class="cls-2" d="M1177,522.91h-50.49c6.09,17.38-7.2,104.46-7.2,104.46h64.89S1170.91,540.29,1177,522.91Z"/><path class="cls-13" d="M1127.2,559.77s22.88,17.65,49.11,0l1.38,15.8s-28.24,13.2-51.88.16Z"/><path class="cls-22" d="M1109.65,466.56s63.7,6.34,80.13-3.46,13-43,13-43C1193.41,421.64,1087.58,419.05,1109.65,466.56Z"/><path class="cls-22" d="M1110.86,445.27s-17.79,5.34-19.93,12.63,12.78,35.5,12.78,35.5h0a8.67,8.67,0,0,0,8.37-6.71l5.54-23.8Z"/><path class="cls-22" d="M1192.52,445.27s17.8,5.34,19.93,12.63-12.77,35.5-12.77,35.5a8.8,8.8,0,0,1-8.38-6.72c-.11-.46-5.54-23.79-5.54-23.79Z"/><path class="cls-23" d="M1185.76,464.89s14.38-8.32,14.71-16.6C1200.47,448.29,1205.9,468.25,1185.76,464.89Z"/><path class="cls-8" d="M1051,1494.75l-4.72,16.55-51,21.87a16.53,16.53,0,0,0-10,15.2h105.4l-4-53.62Z"/><path class="cls-8" d="M1252.1,1494.75l4.73,16.55,51,21.87a16.53,16.53,0,0,1,10,15.2h-105.4l4-53.62Z"/><path class="cls-4" d="M1252.63,685.46c-9.61-64-58.5-96.09-113.27-89-43.74-1.61-83.15,42.87-88.59,89.06l-35.7,235.81h273.26Z"/><g class="cls-24"><polygon class="cls-17" points="1123.28 927.21 1173.6 873.31 1068.2 702.2 1104.17 861.07 996.21 937.02 1123.28 927.21"/></g><rect class="cls-11" x="890.8" y="739.96" width="224.85" height="185.15" transform="translate(-252.09 480.74) rotate(-24.03)"/><rect class="cls-10" x="953.71" y="746.78" width="34.95" height="27.84" transform="translate(-225.61 461.46) rotate(-24.03)"/><path class="cls-2" d="M920.65,937c10.86,2.38,31.79,1.68,33.82,16.5l-33.82,1.71Z"/><path class="cls-2" d="M1123.28,598.2c9.87,29.25,47.1,29.24,57,0C1180.23,598.2,1155.87,585,1123.28,598.2Z"/><polygon class="cls-19" points="1032.7 921.39 1272.28 921.39 1033.74 967.74 1032.7 921.39"/><path class="cls-14" d="M1123.28,598.2l27.17,22-11.24,7.11c-18,9.43-20.86-15.41-25.22-26.48A39.46,39.46,0,0,1,1123.28,598.2Z"/><path class="cls-14" d="M1157.26,619.69l10.58,6.57a12.47,12.47,0,0,0,18.81-8.23l3.28-17s-7.41-2.46-9.7-2.83Z"/><rect class="cls-11" x="527.95" y="1175.69" width="308.46" height="372.67"/><rect class="cls-10" x="658.35" y="1175.69" width="47.66" height="36.16"/><rect class="cls-9" x="836.41" y="1175.69" width="161.12" height="372.67"/><rect class="cls-10" x="905.2" y="1175.69" width="40.83" height="36.16"/><rect class="cls-5" x="1695.6" y="403.65" width="399.37" height="156.12" rx="17.94"/><rect class="cls-25" x="1726.2" y="429.58" width="338.18" height="19.58"/><rect class="cls-25" x="1726.2" y="471.92" width="338.18" height="19.58"/><rect class="cls-25" x="1726.2" y="514.26" width="224.5" height="19.58"/><path class="cls-3" d="M823.47,585.56c-27.25,231-158.27,230.82-185.45,0C640.1,463.68,821.4,463.68,823.47,585.56Z"/><path class="cls-5" d="M780.38,580.68c-1.12,65.24-98.16,65.23-99.27,0C682.23,515.44,779.27,515.45,780.38,580.68Z"/><rect class="cls-26" x="547.48" y="927.21" width="304.08" height="117.98" rx="9.19"/><rect class="cls-5" x="534.02" y="912.89" width="307.99" height="120.4" rx="13.83"/><rect class="cls-25" x="557.61" y="932.89" width="260.8" height="15.1"/><rect class="cls-25" x="557.61" y="965.54" width="260.8" height="15.1"/><rect class="cls-25" x="557.61" y="998.19" width="173.13" height="15.1"/><path class="cls-9" d="M1642.68,1227.62h-154v107.85h154a12.39,12.39,0,0,0,12.39-12.39V1240A12.39,12.39,0,0,0,1642.68,1227.62Z"/><rect class="cls-5" x="1364.47" y="1211.7" width="275.88" height="107.85" rx="12.39"/><rect class="cls-25" x="1385.6" y="1229.62" width="233.61" height="13.53"/><rect class="cls-25" x="1385.6" y="1258.86" width="233.61" height="13.53"/><rect class="cls-25" x="1385.6" y="1288.11" width="155.08" height="13.53"/><path class="cls-3" d="M2349.13,522.91,2292.42,637a3,3,0,0,1-5.45-.13l-14.6-33.34Z"/><polygon class="cls-4" points="2272.38 603.51 2232.86 590.38 2349.13 522.91 2272.38 603.51"/><polygon class="cls-4" points="2349.13 522.91 2296.74 612.41 2343.8 628.17 2349.13 522.91"/><path class="cls-3" d="M2281.07,665.5l-1.49-.56q1-2.61,2-5.21l1.49.55Q2282.06,662.89,2281.07,665.5Z"/><path class="cls-3" d="M1535.89,950.9l-.27-1.57a80.42,80.42,0,0,0,10.74-2.64l.48,1.52A83.2,83.2,0,0,1,1535.89,950.9Zm15.51-4.28-.56-1.49a101.9,101.9,0,0,0,10.14-4.49l.72,1.42A107.57,107.57,0,0,1,1551.4,946.62ZM1566,939.8l-.77-1.39c3.1-1.72,6.21-3.61,9.52-5.77l.87,1.33C1572.24,936.16,1569.09,938.06,1566,939.8Zm13.62-8.51-.9-1.31c2.83-2,5.79-4.09,9-6.53l1,1.27C1585.4,927.18,1582.43,929.33,1579.58,931.29Zm12.92-9.48-1-1.26c3.1-2.37,6.17-4.8,8.81-6.88l1,1.25C1598.68,917,1595.6,919.43,1592.5,921.81Zm12.58-9.86-1-1.25c2.81-2.23,5.83-4.6,8.82-6.89l1,1.26C1610.9,907.36,1607.89,909.73,1605.08,912Zm12.62-9.76-1-1.28c3.32-2.47,6.06-4.43,9.14-6.51l.89,1.32C1623.72,897.79,1621,899.73,1617.7,902.19Zm13.06-9.1-.86-1.34c3.16-2,6.39-4,9.6-5.82l.79,1.38C1637.1,889.13,1633.9,891.07,1630.76,893.09Zm13.7-8.09-.75-1.4c3.29-1.77,6.67-3.47,10-5l.67,1.44C1651.08,881.56,1647.73,883.24,1644.46,885Zm298.72-.38h-1V883c3.72,0,7.51-.08,11.12-.32l.1,1.58C1950.07,884.5,1946.63,884.62,1943.18,884.62Zm-5.84-.1c-3.72-.13-7.47-.41-11.2-.71l.13-1.58c3.7.29,7.42.57,11.13.7Zm20.86-.64-.16-1.58c3.79-.39,7.49-.93,11-1.61l.31,1.56C1965.78,882.94,1962,883.49,1958.2,883.88Zm-36.84-.47c-3.59-.33-7.34-.71-11.14-1.14l.17-1.58c3.79.43,7.53.81,11.11,1.13Zm-15.91-1.7c-3.56-.43-7.29-.91-11.1-1.44l.21-1.57c3.8.52,7.53,1,11.08,1.43Zm68.6-.49-.37-1.55a88.12,88.12,0,0,0,10.59-3.25l.56,1.49A90.74,90.74,0,0,1,1974.05,881.22Zm-84.46-1.62q-5.53-.79-11.07-1.66l.25-1.57q5.52.86,11,1.66Zm158.27-.44v-1.59c3.57,0,7.31-.16,11.11-.45l.12,1.59C2055.25,879,2051.48,879.15,2047.86,879.16Zm-4.82-.07c-3.87-.12-7.65-.41-11.22-.87l.2-1.58c3.52.45,7.25.74,11.07.86Zm20.85-.8-.16-1.59c3.58-.36,7.3-.85,11-1.44l.25,1.57C2071.25,877.43,2067.5,877.92,2063.89,878.29ZM1658.76,878l-.64-1.45c3.42-1.5,6.93-2.91,10.41-4.2l.55,1.49C1665.63,875.15,1662.15,876.55,1658.76,878Zm368.28-.54a84.82,84.82,0,0,1-11-2.69l.49-1.51a82.82,82.82,0,0,0,10.75,2.63Zm-153.26-.3-11-1.8.26-1.57c3.67.61,7.35,1.22,11,1.8Zm115.52-1.14-.65-1.44a64.25,64.25,0,0,0,9.62-5.38l.9,1.31A65.29,65.29,0,0,1,1989.3,876.05Zm90.46,0-.28-1.57c3.66-.66,7.3-1.41,10.9-2.28l.37,1.55Q2085.3,875,2079.76,876ZM1858,874.6l-11-1.87.27-1.57,11,1.87Zm153.51-1.42a61.37,61.37,0,0,1-10.12-5.08l.85-1.34.21.13-.41-.5a48.51,48.51,0,0,0,7.65-7.86l1.26,1a49.64,49.64,0,0,1-7.65,7.91,62.81,62.81,0,0,0,8.79,4.29Zm83.89-.64L2095,871c3.56-1,7.14-2,10.65-3.22l.51,1.51C2102.62,870.48,2099,871.57,2095.41,872.54Zm-421.83-.27-.51-1.5c3.51-1.2,7.12-2.32,10.72-3.32l.43,1.53C1680.64,870,1677.07,871.09,1673.58,872.27Zm168.67-.34q-5.52-.95-11-1.85l.26-1.57,11,1.85Zm-15.76-2.63q-5.54-.9-11-1.75l.24-1.57q5.52.85,11,1.75Zm-137.67-1.54-.39-1.54c3.6-.91,7.28-1.73,11-2.44l.3,1.56C1696,866.05,1692.39,866.86,1688.82,867.76Zm421.87-.06-.54-1.5c3.45-1.26,6.93-2.65,10.33-4.13l.63,1.46C2117.68,865,2114.18,866.42,2110.69,867.7Zm-300-.86c-3.89-.58-7.51-1.09-11.06-1.56l.21-1.58c3.55.48,7.18,1,11.09,1.57Zm186.72-1.54a51.09,51.09,0,0,1-8.11-7.92l1.23-1a49.19,49.19,0,0,0,7.86,7.67Zm-202.54-.64c-3.8-.47-7.53-.91-11.09-1.28l.17-1.58c3.56.37,7.31.81,11.12,1.29Zm-90.5-.17-.27-1.57c3.63-.62,7.37-1.16,11.1-1.6l.19,1.58C1711.69,863.34,1708,863.87,1704.38,864.49Zm74.64-1.58c-3.79-.36-7.53-.67-11.12-.91l.1-1.59c3.61.25,7.37.55,11.17.91Zm-58.87-.52-.16-1.59c3.65-.35,7.41-.63,11.19-.83l.08,1.59C1727.51,861.75,1723.77,862,1720.15,862.39Zm43-.68c-3.78-.21-7.53-.36-11.14-.43l0-1.59c3.63.08,7.4.22,11.2.43Zm362.38-.15-.67-1.44c3.33-1.55,6.67-3.23,9.94-5l.75,1.4C2132.22,858.31,2128.85,860,2125.49,861.56Zm-389.46-.2,0-1.59c3.65-.13,7.47-.18,11.22-.15v1.59C1743.48,861.19,1739.67,861.24,1736,861.36Zm277.7-5.86-1.35-.83a42.06,42.06,0,0,0,4.56-9.95l1.52.46A43.23,43.23,0,0,1,2013.73,855.5Zm126-1.28-.79-1.38c3.2-1.82,6.41-3.76,9.54-5.76l.85,1.33C2146.17,850.44,2142.94,852.39,2139.72,854.22Zm-153.3-.77a40.85,40.85,0,0,1-4.93-10.25l1.52-.47a39.05,39.05,0,0,0,4.74,9.85Zm166.93-7.68-.89-1.32c3-2.05,6.1-4.22,9.09-6.45l.95,1.27C2159.49,841.52,2156.41,843.71,2153.35,845.77Zm-133.78-5.35-1.57-.26a30.13,30.13,0,0,0-.09-10.84l1.56-.31A31.69,31.69,0,0,1,2019.57,840.42Zm-39.19-2a26.64,26.64,0,0,1,.49-11.42l1.53.43a25.09,25.09,0,0,0-.45,10.74Zm185.95-2.09-1-1.25c2.89-2.26,5.79-4.64,8.63-7.07l1,1.2C2172.16,831.67,2169.23,834.07,2166.33,836.34Zm12.31-10.29-1.06-1.19c2.73-2.44,5.48-5,8.17-7.61l1.11,1.14C2184.15,821,2181.39,823.6,2178.64,826.05Zm-162.08-1.16a20.92,20.92,0,0,0-6.34-8.55l1-1.26a22.44,22.44,0,0,1,6.84,9.2Zm-32.41-1.7-1.39-.77a21.42,21.42,0,0,1,8-8.21l.8,1.37A19.87,19.87,0,0,0,1984.15,823.19ZM2190.29,815l-1.13-1.13c2.59-2.6,5.18-5.31,7.72-8.07l1.17,1.08C2195.5,809.66,2192.89,812.39,2190.29,815Zm-184-.9a16.41,16.41,0,0,0-10.47-.34l-.45-1.53a18,18,0,0,1,11.49.39Zm195-10.79-1.18-1.06c2.44-2.74,4.89-5.59,7.28-8.47l1.22,1C2206.2,797.7,2203.74,800.56,2201.28,803.32Zm10.37-12.25-1.24-1c2.31-2.86,4.61-5.83,6.87-8.82l1.27,1C2216.28,785.22,2214,788.2,2211.65,791.07Zm9.77-12.72-1.29-.93c2.18-3,4.36-6,6.47-9.11l1.31.9C2225.79,772.29,2223.6,775.37,2221.42,778.35Zm9.19-13.12-1.33-.89c2-3.05,4.09-6.2,6.09-9.36l1.34.85C2234.71,759,2232.66,762.16,2230.61,765.23Zm8.64-13.48-1.35-.84c1.92-3.13,3.85-6.36,5.72-9.58l1.37.8C2243.12,745.36,2241.18,748.6,2239.25,751.75Zm8.13-13.79-1.39-.78c1.81-3.2,3.62-6.49,5.38-9.78l1.4.75C2251,731.45,2249.19,734.75,2247.38,738Zm7.63-14-1.41-.74c1.7-3.26,3.4-6.6,5-9.94l1.43.7C2258.42,717.29,2256.72,720.65,2255,723.92Zm7.17-14.29-1.44-.69c1.61-3.33,3.2-6.73,4.74-10.12l1.45.66C2265.38,702.88,2263.78,706.29,2262.18,709.63Zm6.72-14.52-1.45-.65c1.5-3.36,3-6.81,4.44-10.25l1.47.61C2271.9,688.28,2270.41,691.73,2268.9,695.11Zm6.3-14.72-1.47-.6c1.41-3.43,2.8-6.92,4.14-10.38l1.48.57C2278,673.45,2276.61,677,2275.2,680.39Z"/><path class="cls-3" d="M1525.47,952l-.06-1.58c1.84-.06,3.69-.19,5.5-.39l.17,1.58C1529.23,951.77,1527.34,951.9,1525.47,952Z"/><path class="cls-3" d="M1514.27,951.28a53,53,0,0,1-10.66-3.69l.68-1.44a51.08,51.08,0,0,0,10.34,3.58Zm-14.94-5.94a54.23,54.23,0,0,1-9.1-6.66l1.07-1.18a52.93,52.93,0,0,0,8.83,6.46Zm-12.54-10.07a52.15,52.15,0,0,1-6.71-9.07l1.38-.8a50.19,50.19,0,0,0,6.5,8.79Zm-9-13.36a54.66,54.66,0,0,1-3.69-10.66l1.55-.36a52.15,52.15,0,0,0,3.58,10.35Zm-4.58-15.41a53.24,53.24,0,0,1-.4-11.28l1.59.12a51.27,51.27,0,0,0,.38,10.93Z"/><path class="cls-8" d="M228.87,1549.59c851.62-3.35,1741.29-3.37,2592.9,0-851.62,3.38-1741.29,3.35-2592.9,0Z"/></svg>