<svg width="20" height="20" viewBox="0 0 20 20" fill="none" xmlns="http://www.w3.org/2000/svg">
<path d="M9.99999 0.400024C4.69799 0.400024 0.399994 4.69802 0.399994 10C0.399994 15.302 4.69799 19.6 9.99999 19.6C15.302 19.6 19.6 15.302 19.6 10C19.6 4.69802 15.302 0.400024 9.99999 0.400024ZM13.905 8.26402C13.909 8.34602 13.91 8.42803 13.91 8.50803C13.91 11.008 12.009 13.889 8.53099 13.889C7.50329 13.8907 6.49696 13.5956 5.63299 13.039C5.77999 13.057 5.93099 13.064 6.08399 13.064C6.96999 13.064 7.78499 12.763 8.43199 12.255C8.03771 12.2473 7.65567 12.1167 7.33911 11.8815C7.02255 11.6464 6.78724 11.3183 6.66599 10.943C6.94915 10.9969 7.24084 10.9856 7.51899 10.91C7.09104 10.8235 6.70619 10.5916 6.4297 10.2537C6.15321 9.91578 6.0021 9.49264 6.00199 9.05602V9.03302C6.25699 9.17402 6.54899 9.26003 6.85899 9.27003C6.45779 9.00295 6.17378 8.59269 6.06504 8.12316C5.9563 7.65362 6.03105 7.16028 6.27399 6.74402C6.74895 7.32802 7.34125 7.80577 8.01256 8.14634C8.68387 8.4869 9.41922 8.68269 10.171 8.72102C10.0754 8.31533 10.1166 7.88943 10.288 7.50953C10.4595 7.12963 10.7516 6.81701 11.1191 6.62029C11.4865 6.42356 11.9087 6.35375 12.3199 6.4217C12.7311 6.48964 13.1084 6.69155 13.393 6.99602C13.8162 6.9123 14.222 6.75708 14.593 6.53702C14.452 6.97516 14.1567 7.3472 13.762 7.58402C14.1368 7.53888 14.5029 7.4381 14.848 7.28502C14.5945 7.66492 14.2751 7.99646 13.905 8.26402V8.26402Z" fill="black"/>
</svg>
